<svg id="Capa_1" enable-background="new 0 0 511.977 511.977" height="512" viewBox="0 0 511.977 511.977" width="512" xmlns="http://www.w3.org/2000/svg"><path d="m501.337 255.785h-62.956c-6.228 0-12.385-1.62-17.807-4.685l-54.226-30.647c-8.418-4.758-17.979-7.272-27.648-7.272h-70.567-97.58c-9.609 0-19.117 2.485-27.496 7.188l-54.637 30.657c-5.374 3.015-11.47 4.615-17.63 4.629l-60.173.131c-5.522.012-9.99 4.499-9.978 10.021.012 5.516 4.486 9.979 10 9.979h.022l60.173-.131c9.564-.021 19.03-2.507 27.373-7.188l54.637-30.657c5.397-3.028 11.521-4.629 17.709-4.629h76.23l-58.034 69.646c-1.753 2.104-2.567 4.836-2.25 7.557s1.735 5.192 3.924 6.838c27.077 20.354 65.495 16.102 87.462-9.688l9.823-11.531c12.442 14.115 39.049 37.661 79.081 39.318l54.128 58.779c4.927 5.352 4.582 13.714-.768 18.641-5.353 4.928-13.713 4.582-18.64-.769l-61.163-66.421c-3.74-4.061-10.066-4.323-14.131-.582-4.063 3.741-4.323 10.067-.582 14.131l50.193 54.507c11.522 12.527-7.885 30.385-19.412 17.868l-57.919-62.9c-3.74-4.061-10.067-4.323-14.13-.582s-4.324 10.067-.583 14.131l50.221 54.541c11.506 12.585-7.982 30.277-19.439 17.834l-59.455-64.559c-3.743-4.062-10.069-4.323-14.13-.582-4.063 3.741-4.323 10.067-.583 14.13l42.988 46.685c11.567 12.556-7.896 30.372-19.464 17.811l-13.282-13.937c-6.624-5.775-14.94-8.379-23.092-7.96-.716-8.101-4.429-15.948-11.029-21.702l-.888-.773c-5.891-5.135-13.12-7.767-20.382-7.993 0-.749-.017-1.5-.069-2.255-1.229-17.945-17.697-32.293-35.644-31.071-5.469.375-10.638 2.078-15.146 4.924-1.868-4.306-4.694-8.272-8.461-11.556l-.888-.773c-13.551-11.812-34.186-10.399-45.999 3.153l-7.093 8.137c-3.945 4.526-6.407 9.843-7.442 15.356h-53.865v-44.401c0-5.522-4.477-10-10-10s-10 4.478-10 10v54.401c0 5.522 4.477 10 10 10h66.422c6.697 14.215 23.154 22.304 38.451 18.404 4.316 16.637 21.628 27.76 38.537 24.564 4.124 19.434 25.555 31.474 44.244 24.472 4.219 12.674 16.453 22.124 29.78 22.942 14.557.894 28.3-8.277 32.935-22.143 4.046 1.665 8.362 2.511 12.687 2.51 8.04 0 16.104-2.896 22.472-8.759 3.544-3.265 6.275-7.177 8.095-11.487 5.877 4.445 12.937 6.701 20.02 6.7 8.04 0 16.104-2.896 22.472-8.76 4.679-4.309 7.944-9.744 9.555-15.74 3.19.981 6.504 1.477 9.823 1.477 8.041 0 16.104-2.896 22.471-8.76 4.217-3.883 7.197-8.613 8.922-13.693 4.334 1.956 9.013 2.95 13.702 2.95 8.04-.001 16.104-2.897 22.471-8.76 2.214-2.039 4.079-4.314 5.609-6.748h62.03c5.522 0 10-4.478 10-10v-144.918c-.001-5.522-4.478-10-10.001-10zm-402.203 162.089c-5.546-4.703-7.155-12.762-2.106-18.555l7.093-8.137c4.81-5.519 12.894-5.479 18.226-.831 5.327 4.644 6.471 12.638 1.672 18.156l-7.102 8.149c-4.566 5.239-12.543 5.784-17.783 1.218zm49.662 27.182c-11.098.763-18.773-12.987-11.255-21.622l14.728-16.895c4.808-5.516 12.885-5.487 18.223-.833 5.337 4.654 6.485 12.639 1.665 18.168l-14.722 16.89c-2.214 2.538-5.281 4.062-8.639 4.292zm29.731 22.916c-5.536-4.695-7.151-12.732-2.128-18.527l8.331-9.558c4.866-5.558 12.957-5.414 18.301-.728 5.285 4.633 6.323 12.63 1.568 18.086l-8.29 9.51c-4.566 5.237-12.543 5.784-17.782 1.217zm61.08 19.706c-11.159 12.802-31.458-5.812-19.296-17.969 11.282-11.279 29.827 5.889 19.296 17.969zm251.73-86.972h-47.036c-.504-7.257-3.371-14.398-8.67-20.153l-57.006-61.905c-1.867-2.03-4.599-3.226-7.356-3.226-19.947 0-38.508-6.721-55.167-19.977-12.778-10.167-19.59-20.561-19.642-20.641-1.708-2.669-4.58-4.37-7.741-4.585-3.173-.223-6.238 1.079-8.293 3.492l-17.765 20.854c-12.765 14.984-33.597 19.41-50.994 12.001l61.149-73.386h65.884c6.228 0 12.386 1.62 17.808 4.685l54.226 30.647c8.418 4.758 17.979 7.272 27.647 7.272h52.956z"/><path d="m1.408 316.38c3.417 8.197 15.331 7.979 18.551-.228 3.405-8.68-6.511-16.928-14.459-12.173-4.191 2.508-5.971 7.894-4.092 12.401z"/><path d="m151.3 193.282c1.156.439 2.358.651 3.548.651 2.805 0 5.546-1.182 7.481-3.362l27.096-30.533h139.459c21.471 0 38.938-17.468 38.938-38.938v-82.162c0-21.47-17.466-38.938-38.937-38.938h-.514c-5.522 0-10 4.478-10 10 0 .415.027.854.079 1.265.662 5.296 5.342 9.094 10.613 8.736 10.36.096 18.759 8.554 18.759 18.938v82.161c0 10.442-8.495 18.938-18.938 18.938h-143.954c-2.859 0-5.582 1.224-7.479 3.362l-12.6 14.198v-118.66c0-10.442 8.496-18.938 18.938-18.938h56.103c.441.031.887.034 1.339.005 5.394-.337 9.521-4.891 9.373-10.251-.003-.127-.009-.255-.017-.378-.33-5.271-4.7-9.376-9.98-9.376h-56.817c-21.471 0-38.938 17.468-38.938 38.938v144.996c-.002 4.153 2.566 7.874 6.448 9.348z"/><path d="m241.607 91.56-13.757-14.377c-3.818-3.99-10.149-4.13-14.139-.311-3.99 3.817-4.13 10.147-.312 14.139l20.592 21.52c1.963 2.051 4.592 3.086 7.227 3.086 2.449 0 4.902-.895 6.83-2.696l58.032-54.279c4.033-3.773 4.245-10.102.473-14.135-3.773-4.034-10.101-4.245-14.135-.473z"/><path d="m278.939 18.31c7.549 5.037 17.598-2.258 15.179-10.973-1.138-4.1-4.877-7.118-9.136-7.322-4.275-.205-8.269 2.413-9.813 6.394-1.659 4.275-.097 9.378 3.77 11.901z"/></svg>